<?xml version="1.0" standalone="no"?>
<!DOCTYPE svg PUBLIC "-//W3C//DTD SVG 20010904//EN"
 "http://www.w3.org/TR/2001/REC-SVG-20010904/DTD/svg10.dtd">
<svg version="1.0" xmlns="http://www.w3.org/2000/svg"
 width="700.000000pt" height="1300.000000pt" viewBox="0 0 700.000000 1300.000000"
 preserveAspectRatio="xMidYMid meet">

<g transform="translate(0.000000,1300.000000) scale(0.100000,-0.100000)"
fill="#000000" stroke="none">
<path d="M3149 12820 c-488 -20 -1021 -92 -1429 -191 -392 -96 -664 -241 -927
-493 -187 -179 -303 -337 -414 -563 -139 -284 -188 -502 -221 -988 -19 -278
-19 -8359 0 -8550 33 -329 91 -545 223 -821 153 -322 436 -607 766 -772 180
-91 461 -175 753 -227 l145 -26 1445 0 c993 0 1467 3 1515 11 306 47 641 142
827 235 340 169 598 426 769 767 133 264 197 491 231 818 23 221 3 8278 -22
8595 -34 446 -81 664 -198 917 -260 562 -725 942 -1337 1092 -630 154 -1405
225 -2126 196z m706 -30 c637 -30 1343 -146 1678 -276 503 -194 896 -591 1101
-1113 78 -199 120 -414 146 -761 17 -217 28 -2063 32 -5415 3 -2941 2 -3138
-15 -3264 -53 -405 -187 -754 -392 -1016 -83 -106 -239 -254 -355 -337 -229
-163 -556 -281 -978 -353 -153 -27 -182 -29 -182 -17 0 4 75 20 167 35 294 50
578 131 760 218 102 49 263 156 364 242 295 252 506 654 579 1102 41 251 41
292 35 3785 -9 4459 -15 4991 -64 5345 -94 671 -533 1252 -1141 1509 -209 89
-542 166 -993 231 -624 89 -1355 98 -2017 24 -479 -53 -952 -154 -1181 -253
-506 -216 -880 -627 -1058 -1161 -72 -217 -99 -410 -121 -855 -14 -290 -14
-8073 0 -8295 24 -383 83 -626 223 -915 193 -397 528 -691 959 -839 158 -54
360 -104 553 -136 88 -15 164 -31 170 -36 40 -39 -460 64 -710 146 -427 141
-774 432 -969 815 -111 215 -187 450 -220 670 -37 249 -37 341 -34 4560 4
3812 5 4149 21 4315 35 367 80 546 202 802 127 266 289 477 506 658 234 195
471 311 809 394 632 155 1407 225 2125 191z m80 -50 c556 -32 1164 -130 1505
-241 537 -176 975 -612 1169 -1162 137 -390 150 -645 152 -2977 0 -866 4
-2540 8 -3720 8 -2150 5 -2492 -24 -2715 -50 -386 -211 -766 -430 -1015 -126
-142 -328 -301 -488 -381 -193 -98 -539 -194 -874 -244 -88 -13 -298 -15
-1446 -15 l-1343 0 -152 25 c-604 99 -948 250 -1241 544 -283 284 -460 688
-513 1176 -19 175 -19 8388 0 8640 32 424 75 609 206 880 108 224 218 377 392
545 168 161 346 281 545 365 338 143 1008 260 1699 298 140 8 682 6 835 -3z
m925 -12505 c0 -13 -157 -15 -1349 -15 -743 0 -1352 4 -1355 9 -3 4 -3 11 1
15 3 3 613 6 1355 6 1192 0 1348 -2 1348 -15z"/>
<path d="M3100 12730 c-570 -29 -1196 -127 -1550 -241 -673 -217 -1174 -846
-1254 -1575 -40 -361 -40 -304 -44 -4459 -3 -4093 -2 -4304 33 -4553 31 -219
87 -404 186 -611 162 -339 405 -588 738 -756 172 -86 461 -170 754 -220 l149
-25 1398 0 1398 0 154 26 c293 49 575 132 751 221 315 158 576 420 721 726
139 293 193 512 217 882 14 218 -6 8008 -21 8310 -30 576 -76 797 -229 1104
-94 185 -182 310 -326 460 -242 251 -514 412 -849 501 -346 92 -822 167 -1271
200 -195 14 -757 20 -955 10z m805 -30 c600 -32 1262 -143 1595 -267 543 -203
971 -688 1119 -1270 59 -232 79 -486 91 -1163 8 -505 27 -7027 21 -7530 -4
-414 -30 -648 -96 -865 -130 -429 -342 -727 -673 -948 -220 -146 -518 -248
-931 -317 -132 -23 -141 -23 -141 -11 0 5 26 12 58 15 85 11 344 63 452 93
357 97 575 217 795 437 134 135 209 239 290 404 138 279 192 501 215 871 14
214 -5 7981 -20 8281 -22 454 -48 639 -117 849 -148 449 -471 836 -874 1045
-200 105 -371 157 -745 230 -937 181 -2027 178 -2959 -10 -331 -66 -485 -113
-665 -204 -424 -212 -756 -609 -904 -1080 -48 -151 -71 -284 -93 -532 -17
-191 -18 -446 -18 -4413 0 -4001 1 -4217 18 -4354 33 -260 108 -502 228 -730
163 -312 461 -576 794 -706 182 -71 531 -157 728 -181 31 -3 57 -10 57 -15 0
-12 1 -12 -162 15 -253 43 -553 128 -722 205 -162 73 -377 235 -503 378 -118
135 -201 268 -276 443 -94 221 -143 411 -169 660 -19 184 -19 8352 0 8610 31
411 77 613 196 865 96 202 190 337 345 498 247 256 506 406 857 497 371 96
903 175 1344 199 226 12 646 12 865 1z m170 -90 c484 -41 973 -123 1284 -216
144 -43 365 -151 486 -239 390 -281 653 -709 729 -1185 53 -328 64 -973 65
-3695 0 -907 6 -2307 12 -3110 16 -2021 7 -2233 -107 -2587 -64 -196 -149
-372 -248 -508 -58 -80 -210 -234 -296 -299 -185 -140 -332 -209 -606 -285
-205 -57 -510 -114 -525 -99 -4 4 -12 56 -17 115 -8 100 -12 112 -45 163 -68
101 -213 192 -347 216 -54 9 -106 9 -247 0 -301 -21 -793 -25 -1090 -10 -394
21 -482 18 -567 -14 -96 -38 -180 -91 -245 -156 -59 -59 -75 -90 -111 -208
-12 -40 -32 -81 -45 -93 l-24 -22 -156 27 c-187 32 -389 82 -534 131 -397 135
-704 404 -881 769 -135 280 -188 499 -210 870 -17 270 -9 8279 8 8470 29 326
56 472 122 659 170 481 546 872 1010 1051 300 116 956 229 1540 265 184 11
874 5 1045 -10z m286 -11770 l70 0 -3 -132 -3 -131 -85 4 c-47 2 -172 3 -277
1 l-193 -3 0 120 0 119 73 6 c186 15 323 23 335 19 8 -1 45 -3 83 -3z m-1278
-17 l87 -6 0 -31 0 -31 -275 0 -275 0 0 37 c0 26 5 38 18 42 19 6 311 -1 445
-11z m1492 -33 c128 -63 194 -148 196 -251 0 -57 11 -132 24 -161 7 -17 -59
-18 -1294 -18 -716 0 -1301 2 -1301 5 0 3 9 15 20 27 27 29 58 99 66 149 11
65 -15 45 -38 -30 -11 -35 -21 -61 -23 -59 -2 2 5 36 17 75 17 58 24 70 38 66
13 -3 23 4 34 25 24 46 123 129 201 168 l70 35 5 -61 c6 -68 23 -90 72 -90
l28 0 0 -100 c0 -129 5 -135 124 -145 47 -4 124 -4 171 0 110 9 115 15 115
147 l0 98 30 0 c48 0 70 30 70 95 l0 55 323 -2 322 -3 5 -155 c3 -85 9 -163
14 -172 4 -10 24 -28 44 -40 35 -22 46 -23 242 -23 183 0 208 2 236 19 58 35
64 57 64 231 l0 158 33 -7 c17 -3 59 -19 92 -36z m-1461 -66 c25 -4 46 -10 46
-13 0 -5 -517 -6 -530 -1 -37 16 384 27 484 14z m-44 -139 l0 -75 -175 0 -175
0 0 75 0 75 175 0 175 0 0 -75z m1754 -105 c9 -124 -10 -99 -24 32 -12 117
-12 130 5 93 7 -16 16 -73 19 -125z m-496 74 c104 -8 112 -16 63 -65 l-29 -29
-210 0 -210 0 -31 26 c-17 14 -31 34 -31 44 0 16 9 20 58 23 110 7 300 7 390
1z m-1329 -70 c33 -4 61 -11 61 -15 0 -12 -317 -11 -325 0 -10 16 159 25 264
15z m1855 -163 c-5 -5 -585 -6 -1354 -2 l-1345 7 1354 2 c778 1 1351 -2 1345
-7z"/>
<path d="M3270 11779 c-455 -17 -1052 -102 -1325 -190 -338 -108 -640 -370
-799 -694 -107 -218 -136 -350 -145 -655 -3 -124 -1 -1174 6 -2335 13 -2313
11 -2224 73 -2416 80 -243 253 -481 464 -636 182 -134 350 -199 690 -268 831
-166 1675 -178 2516 -34 431 73 630 137 820 264 284 189 486 495 546 825 19
101 19 519 4 2970 -10 1569 -15 1789 -45 1932 -101 487 -464 895 -932 1047
-174 56 -618 133 -958 166 -139 13 -633 37 -690 33 -11 -1 -112 -5 -225 -9z
m645 -79 c454 -26 1010 -115 1235 -196 309 -111 577 -348 725 -641 97 -193
131 -336 145 -608 11 -213 35 -4300 27 -4460 -17 -311 -162 -596 -416 -818
-177 -155 -347 -227 -715 -302 -832 -172 -1734 -177 -2591 -14 -468 89 -649
171 -870 393 -176 178 -281 370 -331 606 -20 97 -32 1107 -36 3255 l-3 1520
23 102 c61 278 182 496 383 688 136 131 286 224 467 289 204 73 828 167 1257
189 148 8 545 6 700 -3z m-488 -7186 c-3 -3 -12 -4 -19 -1 -8 3 -5 6 6 6 11 1
17 -2 13 -5z m340 0 c-3 -3 -12 -4 -19 -1 -8 3 -5 6 6 6 11 1 17 -2 13 -5z"/>
<path d="M3392 11550 c-109 -29 -188 -75 -268 -155 -221 -221 -220 -559 1
-780 327 -327 897 -166 990 280 18 88 18 132 0 220 -55 261 -273 440 -550 451
-78 3 -116 0 -173 -16z m-191 -425 l46 -75 44 72 c44 73 44 73 92 76 26 2 47
-1 47 -5 0 -5 -31 -59 -70 -121 l-70 -112 0 -76 0 -75 -42 3 -43 3 -5 80 c-5
78 -7 83 -68 178 -85 132 -84 127 -26 127 l49 0 46 -75z m519 -121 l0 -195
-37 3 -38 3 -3 180 c-1 98 0 185 2 192 3 7 21 13 41 13 l35 0 0 -196z m-136
73 c25 -17 26 -22 26 -105 0 -48 3 -104 6 -124 l7 -38 -41 0 c-22 0 -42 5 -44
11 -3 9 -9 9 -25 0 -31 -16 -105 -14 -131 5 -32 22 -44 58 -31 91 13 35 36 51
84 58 92 14 96 16 93 38 -4 32 -72 37 -88 8 -7 -15 -21 -21 -45 -21 -41 0 -48
8 -32 41 28 57 157 78 221 36z m385 -4 c30 -23 67 -103 58 -127 -5 -13 -24
-16 -106 -16 -91 0 -100 -2 -94 -17 14 -42 77 -58 107 -28 13 14 86 22 86 10
0 -16 -37 -58 -61 -71 -40 -20 -118 -18 -155 5 -64 39 -83 147 -37 210 45 61
143 77 202 34z"/>
<path d="M3463 10929 c-25 -7 -33 -15 -33 -33 0 -24 17 -36 49 -36 24 0 51 31
51 58 0 24 -14 26 -67 11z"/>
<path d="M3846 11024 c-31 -31 -20 -44 39 -44 60 0 70 13 37 43 -23 21 -56 22
-76 1z"/>
<path d="M1636 10188 c-50 -14 -121 -84 -136 -135 -8 -26 -10 -137 -8 -348 l3
-310 28 -47 c18 -31 44 -57 75 -75 l47 -28 375 -3 c439 -4 461 -2 526 63 24
25 47 59 53 81 7 24 11 153 11 325 0 319 -6 361 -62 418 -66 68 -52 66 -483
68 -249 1 -404 -2 -429 -9z m597 -15 c-100 -2 -266 -2 -370 0 -103 1 -21 2
182 2 204 0 288 -1 188 -2z m264 -76 l38 -37 7 -298 c5 -185 4 -311 -3 -334
-13 -49 -67 -95 -121 -103 -24 -3 -200 -5 -393 -3 -331 3 -352 4 -385 23 -19
12 -43 36 -55 55 -19 33 -20 54 -23 330 -3 330 -1 342 67 388 l35 23 398 -3
398 -3 37 -38z m34 26 c13 -16 12 -17 -3 -4 -10 7 -18 15 -18 17 0 8 8 3 21
-13z m-961 -40 c-19 -35 -20 -57 -20 -346 0 -296 1 -311 21 -347 12 -21 38
-47 59 -59 37 -20 49 -21 423 -21 238 0 396 4 413 10 14 6 40 25 57 43 28 30
29 31 22 7 -11 -37 -44 -69 -84 -81 -23 -6 -178 -9 -431 -7 l-395 3 -33 23
c-65 47 -69 65 -75 387 -7 303 -3 344 35 398 28 38 32 34 8 -10z"/>
<path d="M1664 10110 c-12 -4 -31 -21 -43 -36 -20 -26 -21 -35 -21 -328 0
-281 1 -303 20 -333 31 -52 55 -55 462 -51 l367 3 30 29 31 30 0 311 c0 271
-2 314 -16 334 -34 49 -57 51 -446 50 -200 0 -373 -4 -384 -9z m780 -21 c53
-25 57 -52 54 -370 l-3 -291 -28 -24 -28 -24 -379 0 -380 0 -32 29 -33 29 -3
288 c-2 206 0 295 9 316 24 59 19 58 426 58 257 0 380 -4 397 -11z"/>
<path d="M1965 9834 c-52 -43 -67 -72 -39 -81 6 -2 30 12 55 32 l44 35 5 -123
c5 -117 6 -122 28 -125 l22 -3 0 155 0 156 -29 0 c-20 0 -47 -15 -86 -46z"/>
<path d="M3138 10188 c-51 -14 -113 -70 -133 -121 -14 -37 -16 -85 -13 -357
l3 -315 28 -47 c18 -31 44 -57 75 -75 l47 -28 405 0 c400 0 405 0 447 22 53
29 88 75 104 136 15 60 7 618 -9 659 -6 15 -28 45 -48 67 -61 68 -82 71 -503
70 -202 -1 -382 -5 -403 -11z m615 -15 c-106 -2 -280 -2 -385 0 -106 1 -20 2
192 2 212 0 298 -1 193 -2z m232 -63 c54 -51 55 -55 55 -382 0 -283 -1 -305
-20 -335 -42 -69 -34 -68 -440 -71 -255 -2 -378 0 -407 9 -49 13 -90 53 -103
100 -14 47 -13 580 1 616 12 34 47 72 74 84 11 4 199 7 417 6 l396 -2 27 -25z
m46 13 c13 -16 12 -17 -3 -4 -10 7 -18 15 -18 17 0 8 8 3 21 -13z m-960 -37
c-20 -32 -21 -47 -21 -345 0 -355 2 -366 78 -409 39 -22 44 -22 428 -22 376 0
390 1 423 21 19 11 42 30 52 42 19 22 19 22 8 -11 -6 -17 -25 -42 -42 -55 -32
-22 -33 -22 -448 -22 l-416 0 -35 27 c-67 51 -69 62 -71 411 l-2 313 28 42
c32 50 48 57 18 8z m1016 -218 c-2 -13 -4 -3 -4 22 0 25 2 35 4 23 2 -13 2
-33 0 -45z"/>
<path d="M3164 10110 c-12 -4 -31 -21 -43 -36 -20 -26 -21 -35 -21 -334 0
-295 1 -308 21 -333 35 -45 67 -48 462 -45 l369 3 29 33 29 32 0 301 c0 253
-2 305 -16 330 -29 57 -47 59 -446 58 -200 0 -373 -4 -384 -9z m798 -39 l33
-29 3 -288 c2 -206 0 -295 -9 -316 -24 -59 -19 -58 -431 -58 l-378 0 -32 29
-33 29 0 307 0 307 28 24 28 24 379 0 380 0 32 -29z"/>
<path d="M3415 9855 c-17 -16 -25 -35 -25 -60 0 -31 3 -35 25 -35 18 0 25 5
25 19 0 10 8 28 18 40 15 20 25 22 107 19 82 -3 90 -5 101 -26 6 -12 9 -33 7
-47 -6 -28 -17 -31 -147 -40 -76 -6 -93 -11 -113 -31 -20 -20 -24 -32 -21 -72
l3 -47 168 -3 167 -2 0 25 0 25 -145 0 c-109 0 -145 3 -145 13 1 32 20 40 125
49 60 5 116 13 127 19 27 15 40 57 33 106 -10 65 -28 73 -168 73 -112 0 -119
-1 -142 -25z"/>
<path d="M4658 10190 c-52 -16 -98 -52 -126 -98 l-27 -47 3 -324 c3 -296 5
-328 22 -362 26 -49 82 -95 136 -108 27 -7 176 -11 402 -11 401 0 434 4 489
62 65 69 64 65 61 421 -3 304 -4 324 -24 362 -25 47 -85 93 -140 105 -48 12
-759 11 -796 0z m605 -17 c-106 -2 -280 -2 -385 0 -106 1 -20 2 192 2 212 0
298 -1 193 -2z m225 -53 c19 -12 41 -38 52 -63 18 -38 20 -68 20 -333 0 -286
0 -292 -22 -324 -13 -18 -36 -43 -51 -54 -28 -20 -38 -21 -415 -21 -533 0
-492 -35 -492 413 0 335 2 345 63 382 30 19 53 20 422 20 373 0 391 -1 423
-20z m-892 -20 c-14 -17 -28 -45 -31 -63 -4 -18 -5 -165 -3 -328 l3 -296 29
-37 c50 -66 52 -66 476 -66 413 0 426 2 468 55 14 18 22 22 22 13 0 -22 -37
-66 -70 -83 -42 -22 -807 -22 -848 -1 -36 19 -78 65 -91 99 -7 18 -11 140 -11
327 0 187 4 309 11 327 9 25 56 83 67 83 2 0 -8 -14 -22 -30z m1011 -332 c-2
-13 -4 -3 -4 22 0 25 2 35 4 23 2 -13 2 -33 0 -45z"/>
<path d="M4673 10105 c-60 -26 -63 -43 -63 -360 0 -321 3 -340 65 -369 47 -23
737 -24 790 -2 64 27 67 42 63 371 -3 280 -4 295 -24 322 -39 52 -41 53 -434
52 -289 0 -372 -3 -397 -14z m804 -29 l28 -24 3 -306 3 -307 -30 -29 -29 -30
-382 0 -382 0 -29 29 -29 29 0 305 0 305 31 26 31 26 378 0 379 0 28 -24z"/>
<path d="M4897 9862 c-10 -10 -17 -33 -17 -51 0 -28 3 -32 22 -29 13 2 24 11
27 23 5 30 19 35 113 35 108 0 118 -4 118 -45 0 -40 -11 -45 -96 -45 -57 0
-64 -2 -64 -20 0 -18 7 -20 75 -20 64 0 76 -3 85 -20 6 -11 8 -31 4 -45 l-6
-26 -111 3 c-109 3 -111 3 -117 28 -6 26 -35 39 -52 22 -7 -7 -6 -22 1 -45 17
-50 47 -59 186 -55 109 3 118 5 136 27 23 28 25 88 4 118 -10 14 -12 24 -5 28
5 3 10 28 10 55 0 73 -15 80 -171 80 -109 0 -128 -2 -142 -18z"/>
<path d="M1602 8829 c-50 -25 -85 -68 -102 -124 -8 -28 -10 -133 -8 -345 3
-304 3 -305 28 -350 14 -24 45 -58 68 -75 l44 -30 401 -3 c452 -3 457 -3 521
68 19 21 39 56 45 77 14 50 14 576 1 641 -13 60 -60 118 -114 143 -38 17 -74
19 -441 19 -388 0 -401 -1 -443 -21z m626 4 c-97 -2 -259 -2 -360 0 -101 1
-21 2 177 2 198 0 280 -1 183 -2z m249 -59 c60 -45 61 -51 65 -386 3 -298 2
-307 -18 -335 -11 -15 -36 -38 -54 -51 l-34 -23 -387 3 c-374 3 -389 4 -415
24 -15 11 -37 33 -48 48 -20 26 -21 40 -21 341 0 442 -44 406 497 403 375 -3
387 -4 415 -24z m-884 -6 c-42 -46 -43 -57 -43 -373 0 -344 2 -355 69 -401
l36 -24 398 0 c433 0 431 0 477 57 22 28 22 28 15 3 -11 -36 -34 -60 -80 -81
-37 -17 -72 -19 -415 -19 -342 0 -379 2 -415 19 -50 23 -93 71 -99 114 -11 73
-16 583 -5 620 9 33 62 107 77 107 3 0 -4 -10 -15 -22z"/>
<path d="M1629 8741 l-29 -29 0 -312 0 -312 34 -34 34 -34 381 0 c407 0 425 2
451 49 14 28 14 615 -1 644 -30 58 -20 57 -447 57 l-394 0 -29 -29z m838 -14
l28 -27 3 -300 3 -299 -30 -33 -29 -33 -356 -3 c-234 -2 -369 1 -396 8 -74 20
-75 25 -78 357 l-3 294 35 35 35 35 380 -3 381 -3 27 -28z"/>
<path d="M1980 8439 c-93 -74 -116 -97 -118 -120 l-3 -29 125 0 125 0 3 -27
c2 -22 9 -29 31 -31 24 -3 27 0 27 27 0 24 4 31 20 31 13 0 20 7 20 20 0 13
-7 20 -20 20 -19 0 -20 7 -20 100 l0 100 -37 0 c-33 0 -55 -13 -153 -91z m127
-106 c-3 -2 -44 -3 -93 -1 l-88 3 90 71 89 70 3 -69 c2 -38 1 -71 -1 -74z"/>
<path d="M3099 8827 c-24 -13 -57 -43 -74 -66 l-30 -43 -3 -311 c-2 -226 0
-324 9 -357 16 -56 82 -124 135 -139 25 -7 181 -11 424 -11 432 0 433 1 497
73 52 60 56 90 51 422 -4 279 -6 303 -25 340 -26 50 -58 80 -105 100 -32 13
-99 15 -436 15 -398 0 -399 0 -443 -23z m629 6 c-97 -2 -259 -2 -360 0 -101 1
-21 2 177 2 198 0 280 -1 183 -2z m232 -51 c19 -9 45 -32 57 -51 23 -33 23
-38 23 -347 l0 -313 -30 -34 c-16 -19 -42 -40 -58 -46 -20 -8 -137 -11 -409
-9 -367 3 -383 4 -409 24 -15 11 -37 33 -48 48 -20 26 -21 40 -21 341 0 440
-42 405 485 405 337 0 379 -2 410 -18z m-886 -33 c-18 -20 -19 -43 -22 -343
-2 -298 -1 -324 16 -356 11 -19 34 -45 52 -57 33 -23 35 -23 432 -23 434 0
433 0 477 57 l22 28 -7 -25 c-9 -36 -33 -60 -79 -81 -37 -17 -73 -19 -413 -19
-400 0 -415 2 -470 53 -49 46 -51 58 -58 369 -7 310 -5 339 37 392 11 14 23
26 26 26 3 0 -2 -9 -13 -21z m1013 -231 c-2 -13 -4 -3 -4 22 0 25 2 35 4 23 2
-13 2 -33 0 -45z"/>
<path d="M3129 8741 l-29 -29 0 -312 0 -312 34 -34 34 -34 382 0 c397 0 408 1
442 44 16 19 18 52 18 324 0 315 -2 330 -44 364 -19 16 -57 18 -414 18 l-394
0 -29 -29z m811 6 c14 -7 33 -28 42 -47 16 -31 18 -68 18 -310 0 -303 -2 -313
-60 -342 -31 -16 -71 -18 -380 -17 -386 0 -404 3 -432 59 -16 31 -18 68 -18
315 1 299 3 314 51 341 34 19 742 20 779 1z"/>
<path d="M3400 8455 c0 -79 1 -85 21 -85 11 0 27 7 35 15 11 11 38 15 100 15
109 0 124 -8 124 -65 0 -57 -15 -65 -120 -65 -85 0 -120 10 -120 35 0 9 -10
15 -25 15 -20 0 -25 -5 -25 -25 0 -14 9 -34 20 -45 18 -18 33 -20 150 -20 161
0 170 5 170 105 0 54 -4 68 -22 85 -21 19 -33 21 -140 18 l-118 -3 0 28 0 27
135 0 135 0 0 25 0 25 -160 0 -160 0 0 -85z"/>
<path d="M4625 8834 c-40 -20 -83 -62 -103 -99 -15 -27 -17 -67 -14 -355 2
-316 3 -326 25 -370 16 -31 39 -54 72 -75 l48 -30 400 -3 399 -3 53 25 c38 17
62 37 82 67 l28 42 3 325 3 325 -26 52 c-17 35 -40 62 -68 81 l-42 29 -415 3
c-362 2 -419 0 -445 -14z m618 -1 c-101 -2 -265 -2 -365 0 -101 1 -19 2 182 2
201 0 283 -1 183 -2z m237 -55 c18 -13 43 -36 54 -51 20 -27 21 -40 21 -342 0
-442 44 -406 -497 -403 -521 4 -477 -34 -478 413 -1 344 -3 333 70 383 33 22
35 22 415 22 380 0 382 0 415 -22z m65 2 c10 -11 16 -20 13 -20 -3 0 -13 9
-23 20 -10 11 -16 20 -13 20 3 0 13 -9 23 -20z m-952 -27 l-28 -36 0 -321 c0
-352 0 -354 63 -401 26 -19 45 -20 422 -23 217 -1 405 0 417 3 13 3 39 20 59
37 36 32 37 32 30 8 -10 -33 -52 -68 -99 -81 -24 -6 -177 -9 -415 -7 l-378 3
-41 27 c-24 16 -49 44 -62 70 -20 42 -21 59 -21 349 0 325 1 332 52 387 32 33
32 27 1 -15z m1014 -335 c-2 -13 -4 -3 -4 22 0 25 2 35 4 23 2 -13 2 -33 0
-45z"/>
<path d="M4654 8752 c-42 -33 -44 -50 -44 -347 0 -316 4 -341 59 -369 45 -24
775 -24 809 0 49 34 52 54 52 336 -1 297 -6 342 -45 375 l-26 23 -392 0 c-356
0 -394 -2 -413 -18z m805 -6 c48 -25 51 -44 51 -360 l0 -293 -24 -26 c-15 -16
-39 -28 -67 -32 -24 -3 -198 -5 -387 -3 l-344 3 -29 33 -29 32 0 298 c0 320 2
331 54 352 11 5 184 9 384 9 296 1 368 -2 391 -13z"/>
<path d="M4925 8529 c-40 -23 -45 -40 -45 -149 0 -102 1 -108 26 -131 24 -22
33 -24 138 -24 148 0 166 10 166 95 0 88 -6 92 -156 88 l-124 -3 0 31 c0 47
15 54 111 54 96 0 119 -5 119 -26 0 -8 10 -14 25 -14 20 0 25 5 25 23 0 48
-32 62 -154 65 -70 2 -118 -2 -131 -9z m219 -165 c19 -7 22 -64 4 -82 -15 -15
-171 -16 -199 -2 -25 14 -26 65 -1 79 18 11 170 15 196 5z"/>
<path d="M1632 7507 c-52 -19 -103 -66 -124 -114 -18 -41 -19 -64 -16 -361 3
-349 3 -345 69 -410 57 -56 68 -57 499 -57 390 0 396 0 437 22 50 27 87 73
103 128 8 28 11 132 8 345 l-3 305 -28 47 c-18 31 -44 57 -75 75 l-47 28 -395
2 c-288 1 -404 -1 -428 -10z m811 -14 c-7 -2 -21 -2 -30 0 -10 3 -4 5 12 5 17
0 24 -2 18 -5z m29 -50 c64 -39 66 -46 70 -390 3 -304 2 -312 -18 -340 -12
-15 -35 -36 -53 -47 -29 -17 -58 -18 -419 -17 -431 2 -425 1 -467 71 -19 33
-20 55 -23 320 -2 185 0 298 7 322 6 20 27 50 46 67 l36 31 395 0 c359 0 399
-2 426 -17z m-902 -37 c-20 -34 -21 -43 -18 -355 3 -305 4 -321 24 -347 11
-15 33 -37 48 -48 26 -20 41 -21 422 -24 431 -3 425 -4 482 56 l25 27 -8 -25
c-10 -34 -30 -56 -70 -74 -28 -14 -89 -16 -426 -16 l-392 0 -41 24 c-23 13
-51 41 -63 63 -20 36 -21 53 -25 354 l-3 315 28 42 c33 50 48 57 17 8z"/>
<path d="M1664 7430 c-12 -4 -31 -21 -43 -36 -20 -26 -21 -35 -21 -328 0 -281
1 -303 20 -333 31 -51 59 -54 466 -51 l366 3 29 33 29 32 0 308 c0 337 0 336
-60 367 -24 13 -89 15 -397 14 -202 0 -378 -4 -389 -9z m801 -34 c13 -13 26
-39 30 -57 3 -19 5 -159 3 -312 l-3 -279 -28 -24 -28 -24 -379 0 -380 0 -32
29 -33 29 0 307 0 307 28 24 28 24 385 0 385 0 24 -24z"/>
<path d="M1870 7195 l0 -25 140 0 140 0 -102 -121 c-57 -66 -104 -125 -106
-130 -2 -5 10 -9 26 -9 25 0 44 17 136 124 85 100 106 130 106 155 l0 31 -170
0 -170 0 0 -25z"/>
<path d="M3126 7506 c-51 -19 -102 -70 -121 -121 -14 -34 -16 -89 -13 -356 l3
-316 30 -48 c21 -35 45 -56 80 -74 l49 -26 402 0 401 0 49 30 c31 20 58 47 74
75 l25 45 0 315 c-1 344 -3 364 -57 419 -66 68 -52 66 -488 68 -318 2 -403 0
-434 -11z m807 -13 c-7 -2 -21 -2 -30 0 -10 3 -4 5 12 5 17 0 24 -2 18 -5z
m97 -48 c13 -14 21 -25 18 -25 -2 0 -15 11 -28 25 -13 14 -21 25 -18 25 2 0
15 -11 28 -25z m-37 -24 l42 -40 3 -318 c2 -302 1 -320 -17 -350 -40 -65 -42
-65 -470 -64 -437 2 -428 1 -468 81 -22 43 -23 53 -23 333 0 315 1 321 60 371
l32 26 399 0 400 0 42 -39z m-918 -7 l-25 -37 0 -315 c0 -305 1 -315 22 -353
14 -25 37 -46 63 -59 39 -19 62 -20 418 -20 410 0 419 1 471 56 l27 29 -14
-35 c-8 -22 -27 -43 -53 -57 -39 -22 -44 -23 -434 -23 -392 0 -395 1 -435 23
-23 13 -49 40 -62 63 -21 38 -23 56 -29 330 -7 313 -3 349 42 404 35 41 39 38
9 -6z m1012 -226 c-2 -13 -4 -3 -4 22 0 25 2 35 4 23 2 -13 2 -33 0 -45z"/>
<path d="M3156 7425 c-56 -29 -55 -26 -56 -353 0 -338 2 -351 65 -378 50 -20
730 -21 779 0 66 27 66 28 66 358 0 168 -4 308 -10 322 -5 14 -24 35 -42 46
-31 19 -51 20 -403 20 -311 0 -375 -3 -399 -15z m806 -30 c14 -14 28 -39 32
-56 3 -18 6 -150 6 -296 0 -287 -4 -314 -56 -333 -15 -6 -184 -10 -394 -10
l-370 0 -32 29 -33 29 0 307 0 307 28 24 28 24 383 0 383 0 25 -25z"/>
<path d="M3430 7207 c-34 -17 -48 -74 -28 -114 12 -24 12 -31 1 -41 -21 -20
-17 -98 7 -122 18 -18 33 -20 153 -20 117 0 136 2 150 18 21 23 23 105 3 124
-11 12 -11 17 0 33 8 10 14 36 14 56 0 29 -6 42 -26 58 -23 18 -40 21 -138 21
-69 0 -120 -5 -136 -13z m246 -62 c12 -47 -8 -56 -120 -53 -97 3 -101 4 -104
26 -7 49 0 52 112 52 104 0 106 0 112 -25z m2 -140 c5 -44 -18 -55 -119 -55
-107 0 -134 18 -113 74 5 14 23 16 118 14 l111 -3 3 -30z"/>
<path d="M4646 7505 c-57 -20 -87 -46 -116 -96 l-25 -44 3 -324 c3 -296 5
-328 22 -362 27 -52 84 -96 142 -109 65 -13 721 -13 786 0 60 13 118 60 143
114 17 37 19 71 19 347 0 203 -4 317 -11 340 -18 51 -55 97 -102 122 -41 22
-49 22 -432 24 -317 2 -397 0 -429 -12z m51 -11 c-3 -3 -12 -4 -19 -1 -8 3 -5
6 6 6 11 1 17 -2 13 -5z m756 -1 c-7 -2 -21 -2 -30 0 -10 3 -4 5 12 5 17 0 24
-2 18 -5z m35 -53 c19 -12 41 -38 52 -63 18 -38 20 -68 20 -333 0 -286 0 -292
-22 -324 -13 -18 -35 -42 -50 -53 -25 -19 -43 -19 -419 -18 -372 2 -395 3
-425 22 -61 37 -63 54 -64 387 -1 333 1 344 63 382 30 19 53 20 422 20 373 0
391 -1 423 -20z m-909 -47 c-17 -34 -19 -62 -19 -333 0 -331 4 -353 71 -401
l34 -24 380 -3 c209 -2 394 0 412 3 18 3 48 21 68 39 38 36 48 25 14 -18 -44
-56 -44 -56 -474 -56 -321 0 -401 3 -423 14 -36 19 -78 65 -91 99 -15 40 -15
631 0 660 11 21 39 57 44 57 2 0 -6 -17 -16 -37z m1028 -305 c-2 -13 -4 -3 -4
22 0 25 2 35 4 23 2 -13 2 -33 0 -45z"/>
<path d="M4662 7420 c-18 -11 -37 -32 -42 -46 -6 -14 -10 -149 -10 -311 0
-233 3 -291 15 -317 29 -62 24 -61 433 -64 412 -3 426 -1 458 60 22 43 17 611
-6 646 -33 50 -50 52 -447 52 -350 0 -370 -1 -401 -20z m819 -29 l29 -29 0
-302 0 -302 -29 -29 -29 -29 -382 0 -382 0 -29 29 -29 29 0 307 0 306 26 24
27 25 384 0 385 0 29 -29z"/>
<path d="M4930 7213 c-38 -15 -50 -36 -50 -88 0 -86 8 -90 154 -90 l126 0 0
-32 c0 -44 -21 -53 -119 -53 -68 0 -84 3 -101 20 -11 11 -29 20 -40 20 -29 0
-25 -34 6 -59 24 -19 40 -21 143 -21 160 0 161 1 161 154 0 150 -1 150 -154
153 -61 1 -118 0 -126 -4z m228 -86 c3 -32 0 -38 -23 -47 -34 -13 -161 -13
-186 0 -22 12 -26 59 -7 78 9 9 43 12 113 10 l100 -3 3 -38z"/>
<path d="M1634 6161 c-54 -24 -100 -82 -115 -144 -14 -60 -6 -201 17 -296 36
-151 146 -318 267 -408 113 -84 108 -83 407 -83 237 0 269 2 305 19 48 22 79
54 100 103 12 31 15 89 15 340 0 181 -4 318 -11 341 -13 49 -63 105 -114 128
-37 17 -74 19 -435 19 -363 0 -398 -2 -436 -19z m579 2 c-89 -2 -237 -2 -330
0 -92 1 -19 3 162 3 182 0 257 -2 168 -3z m264 -9 c-3 -3 -12 -4 -19 -1 -8 3
-5 6 6 6 11 1 17 -2 13 -5z m19 -50 c15 -11 37 -33 48 -48 20 -26 21 -42 24
-329 3 -338 1 -349 -67 -394 -33 -22 -41 -23 -284 -23 -299 0 -296 -1 -428
130 -69 68 -94 102 -127 170 -57 116 -72 182 -72 316 0 108 1 114 27 145 50
59 51 59 470 56 368 -2 383 -3 409 -23z m65 -1 c13 -16 12 -17 -3 -4 -10 7
-18 15 -18 17 0 8 8 3 21 -13z m-985 -186 c1 -114 4 -143 27 -212 15 -44 43
-109 64 -144 48 -81 162 -197 233 -236 l55 -30 250 -3 c246 -3 251 -3 294 20
31 17 53 38 69 69 l24 44 -6 -35 c-8 -46 -34 -80 -82 -107 -37 -22 -49 -23
-285 -23 -159 0 -258 4 -280 11 -53 18 -152 93 -213 161 -68 76 -140 217 -161
313 -18 84 -20 244 -3 280 6 14 12 25 12 25 1 0 1 -60 2 -133z m1041 -139 c-2
-13 -4 -3 -4 22 0 25 2 35 4 23 2 -13 2 -33 0 -45z"/>
<path d="M1654 6066 c-34 -34 -34 -35 -34 -122 0 -49 7 -120 15 -159 32 -152
143 -315 269 -397 l59 -38 253 0 254 0 32 29 33 29 3 286 c3 322 -1 356 -51
386 -30 19 -53 20 -415 20 l-384 0 -34 -34z m837 -14 l29 -32 0 -300 0 -299
-24 -28 -24 -28 -241 -3 -241 -3 -52 28 c-121 66 -244 230 -282 379 -18 71
-22 245 -5 275 24 46 50 49 442 46 l369 -2 29 -33z"/>
<path d="M2164 5767 c-43 -61 -79 -114 -82 -117 -4 -5 -33 26 -67 73 -18 25
-22 26 -39 14 -18 -13 -16 -17 33 -80 56 -71 76 -80 102 -44 155 220 168 243
149 255 -17 10 -27 0 -96 -101z"/>
<path d="M3129 6152 c-43 -22 -59 -38 -81 -81 l-28 -53 0 -302 c0 -179 4 -316
11 -339 13 -47 61 -102 111 -128 37 -19 57 -20 452 -17 l413 3 40 28 c22 15
50 46 64 70 23 41 24 50 27 267 2 124 -1 275 -6 337 -11 138 -33 180 -115 219
l-52 24 -391 0 -392 0 -53 -28z m861 -44 c79 -41 80 -48 80 -396 0 -335 -2
-345 -63 -382 -30 -19 -53 -20 -422 -20 -373 0 -391 1 -423 20 -19 12 -41 38
-52 63 -18 38 -20 68 -20 332 0 333 2 342 80 383 44 22 50 22 410 22 360 0
366 0 410 -22z m-885 -34 l-25 -37 0 -317 c0 -312 0 -318 23 -350 12 -18 35
-43 50 -54 28 -20 38 -21 432 -21 392 0 404 1 431 21 15 11 37 33 48 48 20 26
21 44 26 334 l6 307 2 -303 c2 -330 0 -343 -54 -394 -16 -15 -42 -32 -57 -37
-18 -7 -164 -11 -407 -11 -243 0 -389 4 -407 11 -35 13 -80 55 -99 92 -11 21
-16 93 -21 315 -6 311 -2 348 43 402 35 41 39 38 9 -6z m1012 -256 c-2 -13 -4
-3 -4 22 0 25 2 35 4 23 2 -13 2 -33 0 -45z"/>
<path d="M3178 6084 c-15 -8 -32 -23 -38 -34 -14 -27 -14 -614 1 -643 30 -58
20 -57 447 -57 l394 0 29 29 29 29 0 312 0 312 -34 34 -34 34 -384 0 c-318 -1
-388 -3 -410 -16z m775 -5 c70 -19 72 -26 75 -356 l3 -294 -35 -35 -35 -35
-380 3 -381 3 -27 28 -28 27 -3 299 -3 298 26 31 c14 17 36 33 48 35 49 10
704 6 740 -4z"/>
<path d="M3413 5866 c-27 -24 -28 -26 -28 -131 0 -105 1 -107 28 -131 26 -22
36 -24 147 -24 111 0 121 2 147 24 25 21 28 31 31 100 5 96 -3 141 -30 166
-19 18 -36 20 -144 20 -115 0 -125 -1 -151 -24z m253 -30 c16 -12 19 -27 19
-100 0 -55 -4 -89 -13 -98 -13 -13 -184 -18 -214 -6 -15 6 -18 21 -18 102 0
80 3 97 18 105 27 16 185 14 208 -3z"/>
<path d="M4667 6170 c-44 -13 -95 -57 -120 -103 -22 -41 -22 -47 -19 -362 3
-309 4 -322 26 -365 13 -26 40 -57 65 -75 l43 -30 276 -3 276 -3 61 30 c120
59 248 203 308 346 57 135 76 367 38 450 -23 51 -79 101 -128 114 -46 13 -784
13 -826 1z m820 -16 c-3 -3 -12 -4 -19 -1 -8 3 -5 6 6 6 11 1 17 -2 13 -5z
m19 -50 c50 -37 66 -68 71 -137 16 -201 -67 -411 -218 -551 -115 -106 -113
-106 -405 -106 -231 0 -251 2 -282 20 -18 11 -41 34 -52 52 -19 31 -20 51 -20
336 0 320 2 333 48 375 11 10 33 22 48 27 16 5 199 8 406 7 363 -2 378 -3 404
-23z m65 -1 c13 -16 12 -17 -3 -4 -10 7 -18 15 -18 17 0 8 8 3 21 -13z m-972
-50 c-19 -39 -20 -56 -17 -344 3 -348 5 -354 88 -396 42 -22 55 -23 285 -23
231 0 242 1 290 24 138 65 266 223 320 396 10 32 20 110 25 185 l7 130 1 -120
c2 -145 -11 -205 -73 -330 -53 -108 -127 -194 -226 -261 l-71 -49 -277 0 -278
0 -37 29 c-72 55 -76 72 -76 415 l0 304 26 44 c32 55 41 52 13 -4z m1028 -180
c-3 -10 -5 -2 -5 17 0 19 2 27 5 18 2 -10 2 -26 0 -35z"/>
<path d="M4668 6071 l-33 -29 -3 -289 c-4 -311 1 -348 45 -382 24 -20 39 -21
282 -21 l256 0 44 29 c146 97 248 254 278 428 18 103 13 208 -11 245 -30 47
-43 48 -446 48 l-380 0 -32 -29z m574 9 l230 0 29 -29 c28 -28 29 -33 29 -123
0 -151 -39 -271 -126 -389 -44 -61 -126 -133 -180 -159 -36 -18 -62 -20 -268
-20 -247 0 -277 6 -296 56 -6 14 -10 156 -10 317 0 323 1 327 63 347 18 5 90
8 166 5 74 -3 237 -5 363 -5z"/>
<path d="M5020 5896 c0 -18 -31 -29 -54 -20 -24 9 -70 -34 -55 -52 15 -18 2
-51 -21 -57 -27 -7 -28 -57 -1 -64 22 -6 35 -42 21 -58 -17 -20 32 -57 64 -49
22 5 28 3 33 -15 4 -17 13 -21 44 -21 27 0 39 4 39 14 0 18 20 25 52 19 31 -6
65 32 47 53 -13 16 5 54 26 54 10 0 15 11 15 35 0 28 -4 35 -19 35 -22 0 -34
33 -18 49 8 8 4 19 -16 38 -20 21 -30 24 -38 16 -15 -15 -49 1 -49 22 0 10
-11 15 -35 15 -24 0 -35 -5 -35 -14z m91 -105 c36 -36 37 -70 3 -110 -51 -61
-144 -26 -144 54 0 79 84 112 141 56z"/>
</g>
</svg>
