<?xml version="1.0" standalone="no"?>
<!DOCTYPE svg PUBLIC "-//W3C//DTD SVG 20010904//EN"
 "http://www.w3.org/TR/2001/REC-SVG-20010904/DTD/svg10.dtd">
<svg version="1.0" xmlns="http://www.w3.org/2000/svg"
 width="724.000000pt" height="743.000000pt" viewBox="0 0 724.000000 743.000000"
 preserveAspectRatio="xMidYMid meet">

<g transform="translate(0.000000,743.000000) scale(0.100000,-0.100000)"
fill="#000000" stroke="none">
<path d="M4577 7409 c-178 -20 -369 -76 -536 -155 -80 -38 -107 -57 -175 -127
-50 -50 -94 -107 -115 -147 -30 -58 -43 -71 -113 -115 -171 -109 -284 -257
-328 -432 -33 -128 -53 -576 -32 -698 7 -36 10 -40 40 -43 27 -3 32 -7 32 -31
0 -15 -5 -32 -10 -37 -12 -12 -7 -2024 4 -2090 l8 -40 -97 -44 c-53 -24 -101
-52 -106 -62 -7 -13 -9 -395 -6 -1126 3 -954 6 -1118 20 -1184 45 -226 139
-403 292 -553 146 -143 347 -237 705 -330 91 -23 208 -59 261 -78 210 -78 460
-111 773 -104 232 5 326 17 481 62 47 14 101 25 119 25 47 0 198 77 269 138
131 111 236 285 282 467 17 66 29 148 34 245 5 80 11 1191 13 2469 2 1853 0
2325 -9 2328 -10 4 -13 -283 -14 -1409 -1 -777 -5 -1876 -9 -2443 -8 -1106 -7
-1080 -61 -1245 -54 -163 -154 -311 -274 -403 -33 -26 -30 -20 21 33 72 78
109 131 157 225 74 147 101 279 111 525 3 80 7 1180 8 2444 2 1697 0 2300 -8
2303 -9 3 -13 -614 -18 -2354 -4 -1303 -11 -2418 -16 -2493 -21 -294 -127
-526 -309 -677 -67 -55 -201 -128 -224 -120 -6 2 18 18 54 35 79 38 181 115
230 174 138 168 201 333 219 576 5 70 12 1194 16 2498 l7 2372 -21 11 c-11 6
-25 11 -31 11 -8 0 -12 -345 -14 -1142 l-2 -1143 -3 1146 c-2 1007 -4 1148
-17 1153 -13 5 -15 -129 -17 -1152 -3 -1149 -3 -1157 -23 -1157 -20 0 -20 7
-22 488 -2 422 -5 491 -18 510 -14 20 -15 89 -9 620 5 439 4 603 -4 620 -6 12
-13 42 -14 66 -4 60 -28 68 -28 9 l0 -44 -250 -44 c-147 -25 -254 -39 -259
-34 -14 14 -40 393 -32 454 4 30 16 70 26 88 46 76 230 194 403 256 97 35 102
34 102 -11 0 -52 21 -29 27 30 10 90 -62 243 -163 345 -50 50 -83 72 -161 108
-54 25 -111 52 -128 60 -45 22 -218 74 -262 78 -21 3 -92 14 -158 26 -123 21
-424 45 -460 36 -11 -3 -67 -6 -125 -6 -117 -2 -240 -20 -345 -51 -84 -24
-352 -112 -379 -124 -37 -16 19 50 84 99 207 155 760 219 1225 140 206 -35
435 -104 589 -180 136 -66 268 -213 321 -357 10 -26 20 -45 23 -42 4 3 23 45
43 92 l37 86 -29 46 c-59 96 -161 199 -255 258 -16 10 -16 12 -3 12 45 2 201
-128 269 -223 31 -43 50 -51 50 -22 0 21 -107 144 -168 192 -73 58 -164 101
-331 158 -227 78 -476 132 -710 156 -117 11 -353 11 -454 -1z m603 -74 c110
-17 320 -64 405 -91 92 -30 245 -96 240 -105 -3 -4 -27 1 -53 12 -156 67 -360
125 -568 161 -113 20 -164 22 -409 23 -296 0 -421 -14 -601 -65 -37 -11 -69
-18 -71 -16 -6 6 99 46 122 46 12 0 53 7 91 15 208 46 615 56 844 20z m-347
-22 c-24 -2 -62 -2 -85 0 -24 2 -5 4 42 4 47 0 66 -2 43 -4z m134 -9 c-3 -3
-12 -4 -19 -1 -8 3 -5 6 6 6 11 1 17 -2 13 -5z m-449 -11 c-10 -2 -26 -2 -35
0 -10 3 -2 5 17 5 19 0 27 -2 18 -5z m-75 -10 c-7 -2 -21 -2 -30 0 -10 3 -4 5
12 5 17 0 24 -2 18 -5z m-60 -10 c-7 -2 -19 -2 -25 0 -7 3 -2 5 12 5 14 0 19
-2 13 -5z m-44 -8 c-3 -2 -58 -18 -122 -34 -141 -36 -226 -76 -303 -144 -33
-28 -48 -38 -34 -23 46 53 138 113 213 141 118 43 264 79 246 60z m-269 -35
c-8 -5 -19 -10 -25 -10 -5 0 -3 5 5 10 8 5 20 10 25 10 6 0 3 -5 -5 -10z
m1775 -45 c17 -8 23 -13 15 -13 -8 0 -33 8 -55 19 -43 20 -10 15 40 -6z
m-1043 -42 c-60 -24 -214 -56 -293 -61 -85 -6 -105 -12 -180 -49 -120 -60
-172 -102 -197 -162 -47 -108 -9 -215 93 -262 104 -48 205 -12 318 114 142
160 199 210 285 255 102 54 105 70 19 82 l-38 5 57 38 c71 46 113 47 377 1 36
-6 52 -24 21 -24 -9 0 -14 -7 -12 -16 2 -11 35 -26 103 -46 142 -42 141 -42
201 -28 53 13 57 13 132 -20 106 -46 148 -74 210 -139 53 -55 132 -197 132
-237 0 -15 -14 -23 -66 -38 -106 -30 -291 -127 -368 -193 -95 -79 -116 -122
-127 -260 -4 -59 -8 -185 -8 -280 l-1 -172 -37 -7 c-20 -4 -95 -4 -167 0 -229
11 -1910 126 -1935 132 l-24 5 6 257 c4 165 11 282 21 327 20 96 58 195 102
260 47 72 155 170 225 206 31 15 77 42 102 58 56 39 154 83 282 127 109 38
188 57 336 79 53 8 110 20 125 26 16 6 63 15 104 19 88 9 221 11 202 3z m1134
-52 c33 -22 84 -66 114 -97 l55 -58 -64 57 c-35 31 -92 71 -127 89 -35 18 -64
36 -64 41 0 16 31 5 86 -32z m-1160 4 c-23 -17 -36 -19 -36 -6 0 5 10 12 23
14 12 2 24 5 27 5 3 1 -4 -5 -14 -13z m591 -42 c-3 -3 -15 -2 -27 2 l-22 7 23
12 c19 10 25 9 27 -2 2 -7 1 -16 -1 -19z m123 -7 l75 -23 -37 -8 c-45 -9 -122
14 -126 38 -4 22 -2 21 88 -7z m-896 -38 c-19 -36 -14 -91 12 -119 15 -17 14
-20 -17 -58 -24 -31 -35 -38 -45 -30 -26 21 -55 98 -61 162 l-6 66 64 4 c35 2
65 4 67 5 1 1 -5 -12 -14 -30z m-764 -18 c-12 -16 -24 -30 -26 -30 -3 0 4 14
16 30 12 17 24 30 26 30 3 0 -4 -13 -16 -30z m968 22 c9 -6 5 -12 -13 -20 -33
-15 -32 -15 -45 8 -10 18 -8 20 17 20 15 0 34 -4 41 -8z m-368 -21 c0 -15 -11
-21 -57 -29 -32 -6 -60 -9 -61 -7 -5 5 90 54 106 55 6 0 12 -9 12 -19z m270
-22 c9 -17 8 -23 -7 -35 -23 -17 -28 -17 -43 1 -16 19 -3 55 20 55 11 0 24 -9
30 -21z m-262 -81 c6 -29 25 -72 42 -96 16 -23 30 -47 30 -51 0 -15 -61 -62
-105 -82 -90 -41 -187 -12 -226 68 -19 39 -20 49 -9 88 19 69 56 97 147 111
43 6 85 12 93 13 10 1 19 -16 28 -51z m1683 25 c13 -16 12 -17 -3 -4 -10 7
-18 15 -18 17 0 8 8 3 21 -13z m-606 -1254 c5 -7 1 -10 -11 -7 -11 2 -19 9
-18 16 1 6 2 40 4 75 l3 62 7 -67 c5 -37 11 -72 15 -79z m-1910 66 c110 -8
210 -15 223 -15 13 0 22 -6 22 -15 0 -12 -9 -14 -37 -10 -21 2 -119 9 -218 15
-216 13 -265 18 -265 31 0 12 40 11 275 -6z m2463 -597 l-3 -583 -102 -21
c-57 -12 -110 -28 -120 -35 -42 -35 -43 -55 -43 -593 l0 -515 -105 -40 c-58
-23 -110 -41 -115 -41 -6 0 -11 446 -12 1175 l-3 1174 55 6 c116 13 365 46
375 50 6 2 25 4 43 4 l32 1 -2 -582z m-2568 542 c-20 -13 -50 -13 -50 0 0 6
15 10 33 10 24 0 28 -3 17 -10z m440 -20 c0 -5 -2 -10 -4 -10 -3 0 -8 5 -11
10 -3 6 -1 10 4 10 6 0 11 -4 11 -10z m-128 -12 l53 -12 -107 -9 c-59 -5 -156
-6 -215 -1 l-108 8 50 12 c66 16 260 17 327 2z m668 -9 c0 -5 9 -9 20 -9 30 0
24 -27 -7 -34 -16 -4 -36 -9 -45 -12 -14 -4 -18 1 -18 25 0 22 -5 31 -17 32
-10 1 -4 4 12 8 33 8 55 4 55 -10z m402 -1 c-8 -8 -17 -8 -34 0 -22 10 -21 11
12 11 26 1 31 -2 22 -11z m128 -12 c0 -7 -14 -10 -40 -8 -22 2 -40 9 -40 16 0
7 14 10 40 8 22 -2 40 -9 40 -16z m418 -19 c2 -10 -3 -17 -12 -17 -10 0 -16 9
-16 21 0 24 23 21 28 -4z m82 8 c0 -8 -4 -15 -9 -15 -5 0 -16 -3 -25 -6 -12
-4 -16 0 -16 15 0 16 6 21 25 21 16 0 25 -6 25 -15z m-1986 -15 c109 -8 174
-7 311 5 46 4 48 3 31 -10 -16 -12 -60 -15 -220 -14 -217 0 -277 6 -284 28 -4
11 1 12 19 7 13 -4 77 -11 143 -16z m546 8 c0 -5 -21 -8 -47 -7 -34 0 -42 3
-28 8 24 10 75 9 75 -1z m315 2 c4 -6 -10 -10 -34 -10 -23 0 -41 5 -41 10 0 6
15 10 34 10 19 0 38 -4 41 -10z m-211 -36 c126 -2 231 -6 233 -8 19 -18 -447
-20 -489 -1 -27 11 -22 29 5 20 12 -5 125 -10 251 -11z m741 -2 c47 -14 -184
-26 -302 -16 l-98 8 50 13 c54 14 295 10 350 -5z m-1245 -20 l195 1 3 -976 2
-976 -35 -7 c-43 -8 -422 1 -452 11 l-23 7 -2 972 c-2 534 -2 974 -1 977 1 3
28 2 60 -3 32 -4 146 -7 253 -6z m1567 2 c-3 -3 -12 -4 -19 -1 -8 3 -5 6 6 6
11 1 17 -2 13 -5z m71 -1 c-10 -2 -26 -2 -35 0 -10 3 -2 5 17 5 19 0 27 -2 18
-5z m147 -4 c11 -1 0 -5 -25 -9 -50 -8 -55 -7 -45 10 4 7 17 9 29 6 11 -3 30
-6 41 -7z m-855 -20 c70 -5 173 -5 235 -1 61 5 112 7 115 5 19 -16 -53 -23
-225 -22 -216 0 -276 6 -283 28 -3 10 0 12 14 7 11 -4 75 -12 144 -17z m530
13 c0 -4 -18 -6 -40 -4 -22 2 -40 6 -40 8 0 2 18 4 40 4 22 0 40 -3 40 -8z
m-960 -18 l235 -3 3 -975 2 -975 -46 -7 c-53 -8 -408 1 -440 11 l-22 7 -4 971
c-2 535 -2 976 0 980 2 5 11 5 21 1 9 -4 122 -9 251 -10z m966 -17 c82 -7 159
-7 240 -1 65 6 121 9 124 7 24 -19 -214 -39 -341 -28 -163 13 -179 16 -179 32
0 10 5 13 18 8 9 -4 71 -12 138 -18z m-390 -25 l191 3 7 -170 c3 -93 6 -533 6
-977 l0 -807 -35 -7 c-44 -8 -434 0 -456 10 -14 6 -16 105 -22 977 -4 534 -5
974 -2 978 2 5 30 4 62 -1 32 -5 144 -8 249 -6z m784 -989 c0 -723 -3 -974
-12 -979 -37 -23 -507 -20 -528 3 -5 4 -11 445 -15 978 l-7 970 281 0 281 0 0
-972z m350 -41 c0 -5 -7 -17 -15 -28 -14 -18 -14 -17 -4 9 12 27 19 34 19 19z
m220 -462 l0 -470 -90 -45 c-49 -25 -94 -45 -100 -45 -12 0 -14 958 -2 977 7
11 139 49 180 52 9 1 12 -99 12 -469z m-243 -337 c-1 -136 -2 -27 -2 242 0
270 1 381 2 248 2 -133 2 -353 0 -490z m-2394 -90 c-7 -2 -19 -2 -25 0 -7 3
-2 5 12 5 14 0 19 -2 13 -5z m400 0 c-7 -2 -19 -2 -25 0 -7 3 -2 5 12 5 14 0
19 -2 13 -5z m-130 -10 c-46 -2 -120 -2 -165 0 -46 1 -9 3 82 3 91 0 128 -2
83 -3z m290 -20 c-7 -2 -21 -2 -30 0 -10 3 -4 5 12 5 17 0 24 -2 18 -5z m375
0 c-10 -2 -28 -2 -40 0 -13 2 -5 4 17 4 22 1 32 -1 23 -4z m-135 -10 c-40 -2
-106 -2 -145 0 -40 1 -8 3 72 3 80 0 112 -2 73 -3z m-833 -22 c0 -6 -4 -13
-10 -16 -5 -3 -10 1 -10 9 0 9 5 16 10 16 6 0 10 -4 10 -9z m513 -7 c-4 -12
-14 -14 -36 -10 -16 3 -41 7 -56 7 -22 1 -21 3 9 9 64 14 90 12 83 -6z m600
-1 c-7 -2 -21 -2 -30 0 -10 3 -4 5 12 5 17 0 24 -2 18 -5z m400 0 c-7 -2 -19
-2 -25 0 -7 3 -2 5 12 5 14 0 19 -2 13 -5z m1267 -1050 c-1 -1124 -9 -1532
-34 -1648 -49 -228 -160 -404 -320 -510 -77 -52 -268 -102 -476 -126 -123 -15
-539 -18 -690 -6 l-105 9 -26 41 c-15 23 -48 84 -74 134 -77 152 -171 232
-271 233 -81 0 -151 -76 -139 -153 8 -54 38 -109 80 -145 45 -40 32 -41 -96
-8 -167 44 -381 135 -489 209 -72 50 -167 151 -226 242 -92 142 -145 293 -164
477 -6 54 -10 517 -10 1117 0 970 1 1023 18 1016 109 -42 473 -106 792 -139
91 -9 117 -15 95 -20 -167 -39 -239 -69 -330 -136 -181 -134 -301 -328 -359
-583 -18 -77 -25 -238 -16 -339 42 -447 305 -802 680 -920 63 -19 96 -23 210
-23 116 0 145 3 205 24 296 101 492 326 576 662 30 122 37 326 15 454 -68 402
-314 718 -646 830 l-65 22 210 -5 c334 -7 689 17 905 63 173 36 440 134 635
233 55 28 103 51 108 51 4 1 7 -475 7 -1056z m-1397 1040 c-45 -2 -122 -2
-170 0 -48 1 -11 3 82 3 94 0 133 -2 88 -3z m684 -9 c-3 -3 -12 -4 -19 -1 -8
3 -5 6 6 6 11 1 17 -2 13 -5z m-134 -11 c-51 -2 -136 -2 -190 0 -54 1 -12 3
92 3 105 0 149 -2 98 -3z m-914 -27 c-9 -9 -108 -23 -103 -15 3 5 17 9 32 10
15 0 36 4 47 8 19 8 33 6 24 -3z m1081 -12 c0 -17 -5 -17 -33 -2 -21 11 -21
11 -2 18 24 9 35 4 35 -16z m-2250 -4 c0 -13 -7 -20 -18 -20 -30 0 -34 13 -10
27 30 16 28 16 28 -7z m1050 -50 c1111 -74 1040 -68 1040 -90 0 -18 -51 -30
-134 -30 -23 0 -59 -9 -81 -22 -54 -29 -182 -38 -191 -14 -5 14 -25 16 -128
16 -277 1 -599 22 -913 62 -167 21 -173 21 -193 3 -17 -15 -30 -17 -89 -11
-88 8 -101 13 -101 41 0 33 -15 40 -117 61 -76 15 -93 22 -93 36 0 16 7 17 53
13 28 -3 455 -33 947 -65z m170 63 c0 -5 -5 -15 -10 -23 -8 -12 -10 -11 -10 8
0 12 5 22 10 22 6 0 10 -3 10 -7z m510 -13 c-7 -13 -18 -19 -28 -16 -9 3 -30
9 -47 13 l-30 7 35 7 c19 3 45 7 58 8 20 1 21 -2 12 -19z m227 4 c-3 -3 -12
-4 -19 -1 -8 3 -5 6 6 6 11 1 17 -2 13 -5z m-967 -14 c0 -5 -10 -10 -22 -9
-22 0 -22 1 -3 9 11 5 21 9 23 9 1 1 2 -3 2 -9z m177 -16 c-3 -3 -12 -4 -19
-1 -8 3 -5 6 6 6 11 1 17 -2 13 -5z m-1082 -52 c67 -16 100 -42 53 -42 -36 0
-185 38 -219 55 -46 24 -26 34 38 18 32 -8 90 -22 128 -31z m2131 37 c9 -16
-6 -26 -48 -32 -32 -5 -38 -3 -38 12 0 10 3 21 7 24 11 11 71 8 79 -4z m-116
-21 c0 -19 -2 -20 -10 -8 -13 19 -13 30 0 30 6 0 10 -10 10 -22z m445 3 c-47
-21 -92 -36 -85 -28 7 8 103 46 115 46 6 0 -8 -8 -30 -18z m-492 -28 c-7 -2
-21 -2 -30 0 -10 3 -4 5 12 5 17 0 24 -2 18 -5z m175 -40 c-4 -23 -58 -31 -58
-9 0 15 14 24 43 25 12 1 17 -5 15 -16z m-88 -13 c0 -21 -15 -27 -25 -10 -7
12 2 30 16 30 5 0 9 -9 9 -20z m-1531 -26 c8 -7 -64 -2 -89 6 -16 6 -6 7 30 3
30 -3 57 -7 59 -9z m69 -11 c-10 -2 -28 -2 -40 0 -13 2 -5 4 17 4 22 1 32 -1
23 -4z m80 -10 c-10 -2 -28 -2 -40 0 -13 2 -5 4 17 4 22 1 32 -1 23 -4z m318
-114 c206 -54 405 -211 526 -416 269 -454 188 -1062 -180 -1355 -84 -67 -127
-90 -227 -125 -94 -33 -269 -42 -368 -19 -126 30 -256 97 -352 181 -24 22 -16
19 45 -14 208 -113 276 -138 415 -148 152 -11 333 46 461 143 108 83 216 228
268 361 50 128 70 238 70 388 0 465 -252 844 -644 966 -111 35 -283 33 -395
-4 -256 -84 -447 -305 -532 -612 -25 -91 -27 -115 -27 -265 1 -146 4 -177 27
-265 28 -104 85 -235 135 -308 33 -47 75 -127 68 -127 -13 0 -91 118 -131 197
-86 172 -120 318 -119 518 0 307 101 550 305 738 91 85 241 162 349 180 76 13
230 6 306 -14z m-21 -113 c202 -64 375 -223 481 -441 275 -566 -30 -1252 -570
-1282 -50 -2 -109 0 -131 5 -32 8 -24 9 42 5 409 -27 741 342 743 825 1 397
-241 763 -580 878 -60 20 -259 27 -335 11 -62 -13 -33 4 32 19 85 20 221 11
318 -20z m-435 -26 c-8 -5 -19 -10 -25 -10 -5 0 -3 5 5 10 8 5 20 10 25 10 6
0 3 -5 -5 -10z m371 -6 c61 -18 158 -70 207 -111 22 -20 41 -51 60 -103 l27
-75 -4 -530 c-1 -291 -7 -552 -12 -580 -5 -27 -22 -75 -37 -105 -24 -48 -35
-59 -95 -91 -109 -58 -222 -73 -340 -45 -89 21 -89 32 -2 39 41 4 88 13 104
21 40 21 90 81 120 146 l26 55 3 518 c4 580 4 578 -66 681 -77 115 -153 136
-340 93 -62 -14 -101 -19 -99 -13 6 21 99 76 161 95 77 25 211 27 287 5z m329
-51 c60 -40 169 -154 217 -227 210 -318 227 -742 43 -1055 -21 -36 -54 -84
-74 -106 -30 -33 -27 -25 19 44 61 93 104 196 131 316 29 125 25 358 -9 487
-60 226 -201 442 -359 549 -32 22 -58 42 -58 46 0 5 19 -6 90 -54z m-452 -57
c41 -22 87 -75 119 -136 l28 -55 0 -540 c0 -529 0 -541 -21 -585 -45 -95 -94
-134 -185 -146 l-54 -6 37 38 c20 22 46 60 58 86 20 45 20 66 23 580 l2 533
-29 62 c-30 65 -94 135 -144 155 l-27 11 25 7 c43 13 140 11 168 -4z m-149
-59 c23 -15 55 -46 71 -69 60 -83 61 -94 58 -655 -3 -464 -5 -511 -21 -548
-72 -160 -267 -194 -392 -70 -21 21 -47 59 -59 84 -21 45 -21 55 -19 563 1
502 2 518 23 564 31 72 64 109 122 139 71 35 156 32 217 -8z m638 -100 c197
-245 257 -573 161 -877 -36 -113 -86 -197 -171 -284 -43 -45 -76 -72 -72 -61
31 94 35 158 35 670 0 406 -3 532 -14 573 -7 29 -10 52 -5 52 4 0 34 -33 66
-73z m-1017 -58 c-6 -18 -11 -171 -11 -339 -1 -168 -4 -368 -8 -445 l-6 -140
-33 73 c-84 187 -108 419 -63 612 19 85 113 291 127 278 2 -3 -1 -20 -6 -39z
m665 -2138 c55 -25 124 -104 175 -201 23 -45 40 -83 38 -85 -7 -7 -181 32
-222 49 -144 60 -196 197 -93 241 42 19 54 18 102 -4z m-5 -271 c8 -5 11 -10
5 -10 -5 0 -17 5 -25 10 -8 5 -10 10 -5 10 6 0 17 -5 25 -10z m60 -20 c18 -12
2 -12 -25 0 -13 6 -15 9 -5 9 8 0 22 -4 30 -9z m170 -31 c24 -7 24 -7 -5 -7
-16 0 -52 6 -80 13 l-50 13 55 -5 c30 -4 66 -10 80 -14z m1200 -58 c0 -10
-197 -57 -295 -71 -112 -15 -332 -21 -430 -13 -77 7 -61 9 115 9 220 1 352 16
508 58 105 29 102 28 102 17z m-957 -18 c-7 -2 -19 -2 -25 0 -7 3 -2 5 12 5
14 0 19 -2 13 -5z m670 -10 c-7 -2 -21 -2 -30 0 -10 3 -4 5 12 5 17 0 24 -2
18 -5z m-290 -20 c-29 -2 -77 -2 -105 0 -29 2 -6 3 52 3 58 0 81 -1 53 -3z
m100 0 c-7 -2 -21 -2 -30 0 -10 3 -4 5 12 5 17 0 24 -2 18 -5z m-365 -20 c-10
-2 -26 -2 -35 0 -10 3 -2 5 17 5 19 0 27 -2 18 -5z"/>
<path d="M1480 7224 c-243 -20 -393 -49 -596 -114 -440 -140 -698 -336 -803
-609 -62 -160 -62 -170 -71 -1036 -11 -1130 -12 -2089 -1 -2118 12 -31 82 -59
210 -83 l91 -18 0 -48 c0 -103 40 -138 156 -138 97 0 114 13 122 91 5 51 5 51
36 45 171 -30 562 -56 850 -56 l233 0 6 -54 c9 -94 33 -114 145 -123 68 -5 80
-3 102 15 22 18 25 29 28 101 4 79 5 81 29 81 50 0 240 32 338 56 54 14 156
46 225 71 134 48 409 176 422 196 11 17 9 2680 -1 2857 -11 177 -28 246 -89
370 -37 77 -62 111 -127 176 -69 71 -94 89 -185 132 -186 89 -419 155 -661
186 -118 16 -378 27 -459 20z m470 -49 c287 -44 566 -132 717 -228 119 -74
223 -219 272 -382 38 -123 42 -276 39 -1705 l-3 -1365 -44 -24 c-143 -79 -508
-214 -661 -245 -474 -96 -1318 -74 -1965 50 -152 30 -219 48 -253 70 l-24 16
5 1401 c4 1428 6 1469 43 1627 21 86 93 233 145 295 63 76 157 154 229 189 36
18 90 48 120 68 182 117 535 218 875 252 83 8 404 -4 505 -19z m-1501 -3955
c72 -11 73 -11 62 -28 -6 -10 -28 -11 -89 -6 -78 7 -82 8 -82 31 0 19 4 22 23
18 12 -3 51 -9 86 -15z m111 -51 c0 -17 -4 -28 -10 -24 -5 3 -10 17 -10 31 0
13 5 24 10 24 6 0 10 -14 10 -31z m-117 -16 c-18 -2 -48 -2 -65 0 -18 2 -4 4
32 4 36 0 50 -2 33 -4z m1477 -33 l0 -30 -67 0 c-86 0 -113 8 -113 31 0 19 23
24 128 27 52 2 52 2 52 -28z m40 -20 c0 -27 -4 -50 -10 -50 -5 0 -10 23 -10
50 0 28 5 50 10 50 6 0 10 -22 10 -50z m-1504 20 c50 0 64 -3 64 -15 0 -8 -6
-16 -12 -16 -34 -4 -115 4 -130 12 -22 12 -24 33 -2 25 9 -3 45 -6 80 -6z
m1337 -57 c-7 -2 -21 -2 -30 0 -10 3 -4 5 12 5 17 0 24 -2 18 -5z m100 -10
c-13 -2 -33 -2 -45 0 -13 2 -3 4 22 4 25 0 35 -2 23 -4z m25 -38 c2 -2 1 -9
-3 -15 -12 -19 -122 -8 -143 14 -16 18 -14 18 63 12 44 -4 81 -9 83 -11z"/>
<path d="M1174 7034 c-77 -46 -99 -67 -144 -136 -44 -67 -55 -113 -40 -167 14
-51 54 -81 109 -81 83 0 148 55 221 184 41 73 81 119 137 157 61 42 56 56 -19
63 -212 18 -199 19 -264 -20z m183 -24 c54 0 56 -1 39 -19 -9 -10 -31 -22 -49
-25 -17 -3 -41 -16 -54 -28 l-23 -21 0 52 c0 44 3 52 16 47 9 -3 41 -6 71 -6z
m-137 -94 c0 -41 5 -87 10 -102 14 -36 6 -57 -36 -89 -114 -87 -202 4 -123
127 31 47 123 138 140 138 5 0 9 -33 9 -74z"/>
<path d="M965 6262 c-157 -74 -181 -330 -46 -484 70 -80 197 -104 278 -52 165
108 140 413 -43 520 -58 34 -136 41 -189 16z m-47 -209 l19 -36 11 31 c8 25
17 32 36 32 29 0 30 -3 16 -31 -10 -17 -7 -19 21 -19 18 0 41 -7 51 -17 17
-15 18 -14 18 25 0 35 2 39 20 35 16 -4 20 -14 20 -49 l0 -44 20 20 c11 11 29
20 39 20 27 0 59 -30 67 -62 6 -27 5 -28 -35 -28 -23 0 -41 -5 -41 -11 0 -7
12 -9 35 -5 26 5 35 3 35 -7 0 -36 -49 -48 -88 -21 -12 8 -22 11 -22 4 0 -6
-26 -9 -72 -8 -67 3 -73 5 -87 30 -13 22 -13 29 -2 42 7 9 24 16 37 16 12 0
25 4 29 9 9 15 -14 24 -30 11 -7 -6 -22 -10 -32 -8 -15 2 -19 -5 -21 -44 -2
-39 -7 -48 -21 -48 -14 0 -20 10 -25 38 -3 22 -17 65 -31 96 -30 68 -30 66 -5
66 12 0 26 -13 38 -37z m357 -63 c-5 -8 -11 -8 -17 -2 -6 6 -7 16 -3 22 5 8
11 8 17 2 6 -6 7 -16 3 -22z"/>
<path d="M1180 5970 c0 -5 7 -10 15 -10 8 0 15 5 15 10 0 6 -7 10 -15 10 -8 0
-15 -4 -15 -10z"/>
<path d="M1030 5940 c-12 -7 -12 -12 -3 -21 10 -10 14 -9 19 5 8 22 2 27 -16
16z"/>
<path d="M6671 6734 c-173 -102 -317 -181 -321 -177 -4 4 -27 65 -51 135 -24
70 -46 124 -50 120 -20 -23 -350 -825 -343 -832 5 -5 169 -68 364 -141 195
-72 361 -134 367 -136 7 -3 -9 57 -37 137 -28 77 -50 147 -50 154 0 6 142 94
315 195 173 101 315 187 315 191 0 13 -181 524 -188 532 -4 3 -148 -77 -321
-178z"/>
<path d="M5798 6373 c-20 -2 -41 -9 -46 -16 -6 -7 -12 -117 -14 -255 l-3 -244
24 -19 c35 -28 85 -25 110 8 25 31 37 71 25 83 -25 23 -49 19 -67 -11 -14 -26
-20 -29 -32 -19 -27 22 -14 130 16 130 5 0 15 -12 21 -26 l12 -26 21 49 c20
45 21 59 16 198 -7 167 -1 157 -83 148z m22 -173 c0 -123 -1 -130 -20 -130
-19 0 -20 7 -20 130 0 123 1 130 20 130 19 0 20 -7 20 -130z m37 -57 c-2 -37
-3 -9 -3 62 0 72 1 102 3 68 2 -34 2 -93 0 -130z m-2 -262 c-8 -17 -17 -31
-19 -31 -3 0 -13 -3 -23 -7 -11 -4 -5 6 15 24 17 17 32 37 32 44 0 7 3 10 6 7
3 -4 -2 -20 -11 -37z"/>
<path d="M5551 6031 c-36 -84 -26 -229 19 -283 17 -20 21 -21 30 -8 10 15 9
28 -5 80 -7 24 -7 24 7 6 10 -13 21 -17 33 -13 17 7 17 27 0 72 -7 16 -6 18 6
8 20 -20 38 -15 51 12 13 30 -3 75 -27 75 -8 0 -15 6 -15 14 0 8 -8 21 -19 28
-10 7 -20 22 -22 33 -8 39 -35 28 -58 -24z m116 -113 c-3 -8 -6 -5 -6 6 -1 11
2 17 5 13 3 -3 4 -12 1 -19z"/>
</g>
</svg>
